<?xml version="1.0" encoding="utf-8"?>
<!-- Generator: Adobe Illustrator 22.0.1, SVG Export Plug-In . SVG Version: 6.00 Build 0)  -->
<svg version="1.1" id="Layer_1" xmlns="http://www.w3.org/2000/svg" xmlns:xlink="http://www.w3.org/1999/xlink" x="0px" y="0px"
	 viewBox="0 0 108.7 67.9" style="enable-background:new 0 0 108.7 67.9;" xml:space="preserve">
<style type="text/css">
	.st0{fill:#ECF1FF;}
	.st1{opacity:0.3;fill:#DDF3EE;enable-background:new    ;}
	.st2{fill:url(#SVGID_1_);}
	.st3{fill:#9BA9B7;}
	.st4{fill:url(#SVGID_2_);}
	.st5{fill:url(#SVGID_3_);}
	.st6{fill:url(#SVGID_4_);}
	.st7{fill:url(#SVGID_5_);}
	.st8{fill:url(#SVGID_6_);}
	.st9{fill:url(#SVGID_7_);}
	.st10{fill:url(#SVGID_8_);}
	.st11{fill:url(#SVGID_9_);}
	.st12{fill:url(#SVGID_10_);}
</style>
<g>
	<g>
		<g>
			<g>
				<path class="st0" d="M2.9,58.5L2.9,58.5c-1.6,0-2.8-1.3-2.8-2.8V2.8C0.1,1.2,1.4,0,2.9,0l0,0c1.6,0,2.8,1.3,2.8,2.8v52.9
					C5.7,57.3,4.4,58.5,2.9,58.5z"/>
				<path class="st1" d="M2.9,58.5L2.9,58.5c-1.6,0-2.8-1.3-2.8-2.8V2.8C0.1,1.2,1.4,0,2.9,0l0,0c1.6,0,2.8,1.3,2.8,2.8v52.9
					C5.7,57.3,4.4,58.5,2.9,58.5z"/>
				
					<linearGradient id="SVGID_1_" gradientUnits="userSpaceOnUse" x1="2.9" y1="11.4588" x2="2.9" y2="51.1588" gradientTransform="matrix(1 0 0 -1 0 70)">
					<stop  offset="0" style="stop-color:#FFFFFF"/>
					<stop  offset="1" style="stop-color:#00AEF6"/>
				</linearGradient>
				<path class="st2" d="M2.9,58.5L2.9,58.5c-1.6,0-2.8-1.3-2.8-2.8V21.6c0-1.6,1.3-2.8,2.8-2.8l0,0c1.6,0,2.8,1.3,2.8,2.8v34.1
					C5.7,57.3,4.4,58.5,2.9,58.5z"/>
			</g>
			<g>
				<g>
					<path class="st3" d="M1.3,67.7H0.9v-2.5c0-0.2,0-0.4,0-0.6l-0.1,0.1c0,0-0.2,0.2-0.6,0.5L0,64.9l0.9-0.7h0.3L1.3,67.7L1.3,67.7
						z"/>
					<path class="st3" d="M5.1,65.9c0,0.6-0.1,1.1-0.3,1.4s-0.5,0.5-0.9,0.5S3.2,67.6,3,67.3s-0.3-0.8-0.3-1.4s0.1-1.1,0.3-1.4
						S3.5,64,3.9,64s0.7,0.2,0.9,0.5C5,64.9,5.1,65.3,5.1,65.9z M3.1,65.9c0,0.5,0.1,0.9,0.2,1.1c0.1,0.2,0.3,0.4,0.6,0.4
						s0.5-0.1,0.6-0.4c0.1-0.2,0.2-0.6,0.2-1.1S4.6,65,4.5,64.8c-0.1-0.2-0.3-0.4-0.6-0.4s-0.5,0.1-0.6,0.4S3.1,65.4,3.1,65.9z"/>
				</g>
			</g>
		</g>
		<g>
			<g>
				<path class="st0" d="M14.2,58.5L14.2,58.5c-1.6,0-2.8-1.3-2.8-2.8V2.8c0-1.6,1.3-2.8,2.8-2.8l0,0C15.8,0,17,1.3,17,2.8v52.9
					C17,57.3,15.7,58.5,14.2,58.5z"/>
				<path class="st1" d="M14.2,58.5L14.2,58.5c-1.6,0-2.8-1.3-2.8-2.8V2.8c0-1.6,1.3-2.8,2.8-2.8l0,0C15.8,0,17,1.3,17,2.8v52.9
					C17,57.3,15.7,58.5,14.2,58.5z"/>
				
					<linearGradient id="SVGID_2_" gradientUnits="userSpaceOnUse" x1="14.2" y1="-11.0358" x2="14.2" y2="63.8767" gradientTransform="matrix(1 0 0 -1 0 70)">
					<stop  offset="0" style="stop-color:#FFFFFF"/>
					<stop  offset="1" style="stop-color:#00AEF6"/>
				</linearGradient>
				<path class="st4" d="M14.2,58.5L14.2,58.5c-1.6,0-2.8-1.3-2.8-2.8V10.9c0-1.6,1.3-2.8,2.8-2.8l0,0c1.6,0,2.8,1.3,2.8,2.8v44.8
					C17,57.3,15.7,58.5,14.2,58.5z"/>
			</g>
			<g>
				<g>
					<path class="st3" d="M12.7,67.7h-2.3v-0.3l0.9-0.9c0.3-0.3,0.5-0.5,0.6-0.6s0.2-0.2,0.2-0.4s0.1-0.2,0.1-0.4
						c0-0.2-0.1-0.3-0.2-0.5s-0.3-0.2-0.5-0.2c-0.1,0-0.3,0-0.4,0.1c-0.1,0-0.3,0.1-0.4,0.3l-0.3-0.3c0.3-0.3,0.7-0.4,1.1-0.4
						c0.3,0,0.6,0.1,0.8,0.3s0.3,0.4,0.3,0.7c0,0.2-0.1,0.5-0.2,0.7s-0.4,0.5-0.7,0.8l-0.8,0.8l0,0h1.8
						C12.7,67.4,12.7,67.7,12.7,67.7z"/>
					<path class="st3" d="M15.5,65.9c0,0.6-0.1,1.1-0.3,1.4c-0.2,0.3-0.5,0.5-0.9,0.5s-0.7-0.2-0.9-0.5s-0.3-0.8-0.3-1.4
						s0.1-1.1,0.3-1.4s0.5-0.5,0.9-0.5s0.7,0.2,0.9,0.5C15.4,64.9,15.5,65.3,15.5,65.9z M13.6,65.9c0,0.5,0.1,0.9,0.2,1.1
						s0.3,0.4,0.6,0.4c0.3,0,0.5-0.1,0.6-0.4c0.1-0.2,0.2-0.6,0.2-1.1S15.1,65,15,64.8s-0.3-0.4-0.6-0.4c-0.3,0-0.5,0.1-0.6,0.4
						S13.6,65.4,13.6,65.9z"/>
				</g>
			</g>
		</g>
		<g>
			<g>
				<path class="st0" d="M25.4,58.5L25.4,58.5c-1.6,0-2.8-1.3-2.8-2.8V2.8c0-1.6,1.3-2.8,2.8-2.8l0,0c1.6,0,2.8,1.3,2.8,2.8v52.9
					C28.2,57.3,27,58.5,25.4,58.5z"/>
				<path class="st1" d="M25.4,58.5L25.4,58.5c-1.6,0-2.8-1.3-2.8-2.8V2.8c0-1.6,1.3-2.8,2.8-2.8l0,0c1.6,0,2.8,1.3,2.8,2.8v52.9
					C28.2,57.3,27,58.5,25.4,58.5z"/>
				
					<linearGradient id="SVGID_3_" gradientUnits="userSpaceOnUse" x1="25.4" y1="3.4634" x2="25.4" y2="35.1468" gradientTransform="matrix(1 0 0 -1 0 70)">
					<stop  offset="0" style="stop-color:#FFFFFF"/>
					<stop  offset="1" style="stop-color:#00AEF6"/>
				</linearGradient>
				<path class="st5" d="M25.4,58.5L25.4,58.5c-1.6,0-2.8-1.3-2.8-2.8v-26c0-1.6,1.3-2.8,2.8-2.8l0,0c1.6,0,2.8,1.3,2.8,2.8v26
					C28.2,57.3,27,58.5,25.4,58.5z"/>
			</g>
			<g>
				<g>
					<path class="st3" d="M23.8,65c0,0.2-0.1,0.4-0.2,0.6c-0.1,0.1-0.3,0.2-0.5,0.3l0,0c0.3,0,0.5,0.1,0.6,0.3s0.2,0.3,0.2,0.6
						c0,0.3-0.1,0.6-0.4,0.8c-0.2,0.2-0.6,0.3-1,0.3c-0.2,0-0.4,0-0.5,0c-0.2,0-0.3-0.1-0.5-0.2v-0.4c0.2,0.1,0.3,0.1,0.5,0.2
						c0.2,0,0.3,0.1,0.5,0.1c0.6,0,0.9-0.2,0.9-0.7c0-0.4-0.3-0.6-1-0.6H22V66h0.4c0.3,0,0.5-0.1,0.7-0.2s0.3-0.6,0.3-0.8
						s-0.1-0.3-0.2-0.4s-0.3-0.1-0.5-0.1s-0.3,0-0.4,0.1c-0.1,0-0.3,0.1-0.5,0.2l-0.2-0.3c0.1-0.1,0.3-0.2,0.5-0.3
						c0.2-0.1,0.4-0.1,0.6-0.1c0.3,0,0.6,0.1,0.8,0.2C23.7,64.5,23.8,64.7,23.8,65z"/>
					<path class="st3" d="M26.8,65.9c0,0.6-0.1,1.1-0.3,1.4s-0.5,0.5-0.9,0.5s-0.7-0.2-0.9-0.5s-0.3-0.8-0.3-1.4s0.1-1.1,0.3-1.4
						s0.5-0.5,0.9-0.5s0.7,0.2,0.9,0.5C26.7,64.9,26.8,65.3,26.8,65.9z M24.9,65.9c0,0.5,0.1,0.9,0.2,1.1c0.1,0.2,0.3,0.4,0.6,0.4
						s0.5-0.1,0.6-0.4c0.1-0.2,0.2-0.6,0.2-1.1s-0.1-0.9-0.2-1.1c-0.1-0.2-0.3-0.4-0.6-0.4s-0.5,0.1-0.6,0.4S24.9,65.4,24.9,65.9z"
						/>
				</g>
			</g>
		</g>
		<g>
			<g>
				<path class="st0" d="M36.7,58.5L36.7,58.5c-1.6,0-2.8-1.3-2.8-2.8V2.8c0-1.6,1.3-2.8,2.8-2.8l0,0c1.6,0,2.8,1.3,2.8,2.8v52.9
					C39.5,57.3,38.3,58.5,36.7,58.5z"/>
				<path class="st1" d="M36.7,58.5L36.7,58.5c-1.6,0-2.8-1.3-2.8-2.8V2.8c0-1.6,1.3-2.8,2.8-2.8l0,0c1.6,0,2.8,1.3,2.8,2.8v52.9
					C39.5,57.3,38.3,58.5,36.7,58.5z"/>
				
					<linearGradient id="SVGID_4_" gradientUnits="userSpaceOnUse" x1="36.7" y1="-3.6967" x2="36.7" y2="46.782" gradientTransform="matrix(1 0 0 -1 0 70)">
					<stop  offset="0" style="stop-color:#FFFFFF"/>
					<stop  offset="1" style="stop-color:#00AEF6"/>
				</linearGradient>
				<path class="st6" d="M36.7,58.5L36.7,58.5c-1.6,0-2.8-1.3-2.8-2.8V10.9c0-1.6,1.3-2.8,2.8-2.8l0,0c1.6,0,2.8,1.3,2.8,2.8v44.8
					C39.5,57.3,38.3,58.5,36.7,58.5z"/>
			</g>
			<g>
				<g>
					<path class="st3" d="M35.3,66.9h-0.5v0.8h-0.4v-0.8h-1.7v-0.4l1.7-2.4h0.4v2.4h0.5V66.9z M34.4,66.5v-1.2c0-0.2,0-0.5,0-0.8
						l0,0c-0.1,0.2-0.2,0.3-0.2,0.4l-1.1,1.6H34.4z"/>
					<path class="st3" d="M38,65.9c0,0.6-0.1,1.1-0.3,1.4s-0.5,0.5-0.9,0.5s-0.7-0.2-0.9-0.5s-0.3-0.8-0.3-1.4s0.1-1.1,0.3-1.4
						s0.5-0.5,0.9-0.5s0.7,0.2,0.9,0.5C37.9,64.9,38,65.3,38,65.9z M36,65.9c0,0.5,0.1,0.9,0.2,1.1c0.1,0.2,0.3,0.4,0.6,0.4
						s0.5-0.1,0.6-0.4c0.1-0.2,0.2-0.6,0.2-1.1s-0.1-0.9-0.2-1.1c-0.1-0.2-0.3-0.4-0.6-0.4s-0.5,0.1-0.6,0.4S36,65.4,36,65.9z"/>
				</g>
			</g>
		</g>
		<g>
			<g>
				<path class="st0" d="M48,58.5L48,58.5c-1.6,0-2.8-1.3-2.8-2.8V2.8C45.2,1.2,46.5,0,48,0l0,0c1.6,0,2.8,1.3,2.8,2.8v52.9
					C50.8,57.3,49.5,58.5,48,58.5z"/>
				<path class="st1" d="M48,58.5L48,58.5c-1.6,0-2.8-1.3-2.8-2.8V2.8C45.2,1.2,46.5,0,48,0l0,0c1.6,0,2.8,1.3,2.8,2.8v52.9
					C50.8,57.3,49.5,58.5,48,58.5z"/>
				
					<linearGradient id="SVGID_5_" gradientUnits="userSpaceOnUse" x1="48" y1="-2.026" x2="48" y2="39.8606" gradientTransform="matrix(1 0 0 -1 0 70)">
					<stop  offset="0" style="stop-color:#FFFFFF"/>
					<stop  offset="1" style="stop-color:#00AEF6"/>
				</linearGradient>
				<path class="st7" d="M48,58.5L48,58.5c-1.6,0-2.8-1.3-2.8-2.8V19.5c0-1.6,1.3-2.8,2.8-2.8l0,0c1.6,0,2.8,1.3,2.8,2.8v36.2
					C50.8,57.3,49.5,58.5,48,58.5z"/>
			</g>
			<g>
				<g>
					<path class="st3" d="M45.7,65.5c0.4,0,0.7,0.1,0.9,0.3c0.2,0.2,0.3,0.4,0.3,0.8s-0.1,0.7-0.4,0.9c-0.2,0.2-0.6,0.3-1,0.3
						s-0.7-0.1-0.9-0.2v-0.4c0.1,0.1,0.3,0.1,0.4,0.2c0.2,0,0.3,0.1,0.5,0.1c0.3,0,0.5-0.1,0.7-0.2s0.2-0.3,0.2-0.6
						c0-0.5-0.3-0.7-0.9-0.7c-0.2,0-0.4,0-0.6,0.1L44.7,66l0.1-1.7h1.8v0.4h-1.4l-0.1,1.1C45.3,65.5,45.5,65.5,45.7,65.5z"/>
					<path class="st3" d="M49.8,65.9c0,0.6-0.1,1.1-0.3,1.4s-0.5,0.5-0.9,0.5s-0.7-0.2-0.9-0.5s-0.3-0.8-0.3-1.4s0.1-1.1,0.3-1.4
						s0.5-0.5,0.9-0.5s0.7,0.2,0.9,0.5C49.7,64.9,49.8,65.3,49.8,65.9z M47.8,65.9c0,0.5,0.1,0.9,0.2,1.1c0.1,0.2,0.3,0.4,0.6,0.4
						s0.5-0.1,0.6-0.4c0.1-0.2,0.2-0.6,0.2-1.1s-0.1-0.9-0.2-1.1c-0.1-0.2-0.3-0.4-0.6-0.4s-0.5,0.1-0.6,0.4S47.8,65.4,47.8,65.9z"
						/>
				</g>
			</g>
		</g>
		<g>
			<g>
				<path class="st0" d="M59.2,58.5L59.2,58.5c-1.6,0-2.8-1.3-2.8-2.8V2.8c0-1.6,1.3-2.8,2.8-2.8l0,0C60.8,0,62,1.3,62,2.8v52.9
					C62.1,57.3,60.8,58.5,59.2,58.5z"/>
				<path class="st1" d="M59.2,58.5L59.2,58.5c-1.6,0-2.8-1.3-2.8-2.8V2.8c0-1.6,1.3-2.8,2.8-2.8l0,0C60.8,0,62,1.3,62,2.8v52.9
					C62.1,57.3,60.8,58.5,59.2,58.5z"/>
				
					<linearGradient id="SVGID_6_" gradientUnits="userSpaceOnUse" x1="59.2027" y1="1.0767" x2="59.2027" y2="32.7601" gradientTransform="matrix(1 0 0 -1 0 70)">
					<stop  offset="0" style="stop-color:#FFFFFF"/>
					<stop  offset="1" style="stop-color:#00AEF6"/>
				</linearGradient>
				<path class="st8" d="M59.2,58.5L59.2,58.5c-1.6,0-2.8-1.3-2.8-2.8v-26c0-1.6,1.3-2.8,2.8-2.8l0,0c1.6,0,2.8,1.3,2.8,2.8v26
					C62.1,57.3,60.8,58.5,59.2,58.5z"/>
			</g>
			<g>
				<g>
					<path class="st3" d="M55.4,66.2c0-0.7,0.1-1.2,0.4-1.6c0.3-0.3,0.7-0.5,1.2-0.5c0.2,0,0.3,0,0.4,0v0.3c-0.1,0-0.3-0.1-0.4-0.1
						c-0.4,0-0.7,0.1-0.9,0.4s-0.3,0.6-0.3,1.1l0,0c0.2-0.3,0.5-0.4,0.8-0.4c0.3,0,0.6,0.1,0.8,0.3c0.2,0.2,0.3,0.5,0.3,0.8
						c0,0.4-0.1,0.7-0.3,0.9c-0.2,0.2-0.5,0.3-0.8,0.3c-0.4,0-0.7-0.1-0.9-0.4C55.5,67.1,55.4,66.7,55.4,66.2z M56.6,67.4
						c0.2,0,0.4-0.1,0.5-0.2s0.2-0.4,0.2-0.6s-0.1-0.4-0.2-0.6c-0.1-0.1-0.3-0.2-0.5-0.2c-0.1,0-0.3,0-0.4,0.1
						C56.1,66,56,66,55.9,66.1s-0.1,0.2-0.1,0.3c0,0.2,0,0.3,0.1,0.5s0.2,0.3,0.3,0.3C56.3,67.4,56.5,67.4,56.6,67.4z"/>
					<path class="st3" d="M60.6,65.9c0,0.6-0.1,1.1-0.3,1.4c-0.2,0.3-0.5,0.5-0.9,0.5s-0.7-0.2-0.9-0.5c-0.2-0.3-0.3-0.8-0.3-1.4
						s0.1-1.1,0.3-1.4c0.2-0.3,0.5-0.5,0.9-0.5s0.7,0.2,0.9,0.5S60.6,65.3,60.6,65.9z M58.6,65.9c0,0.5,0.1,0.9,0.2,1.1
						s0.3,0.4,0.6,0.4c0.3,0,0.5-0.1,0.6-0.4s0.2-0.6,0.2-1.1S60.1,65,60,64.8s-0.3-0.4-0.6-0.4c-0.3,0-0.5,0.1-0.6,0.4
						C58.7,65,58.6,65.4,58.6,65.9z"/>
				</g>
			</g>
		</g>
		<g>
			<g>
				<path class="st0" d="M70.5,58.5L70.5,58.5c-1.6,0-2.8-1.3-2.8-2.8V2.8C67.7,1.2,69,0,70.5,0l0,0c1.6,0,2.8,1.3,2.8,2.8v52.9
					C73.3,57.3,72.1,58.5,70.5,58.5z"/>
				<path class="st1" d="M70.5,58.5L70.5,58.5c-1.6,0-2.8-1.3-2.8-2.8V2.8C67.7,1.2,69,0,70.5,0l0,0c1.6,0,2.8,1.3,2.8,2.8v52.9
					C73.3,57.3,72.1,58.5,70.5,58.5z"/>
				
					<linearGradient id="SVGID_7_" gradientUnits="userSpaceOnUse" x1="70.5" y1="-3.4581" x2="70.5" y2="49.7057" gradientTransform="matrix(1 0 0 -1 0 70)">
					<stop  offset="0" style="stop-color:#FFFFFF"/>
					<stop  offset="1" style="stop-color:#00AEF6"/>
				</linearGradient>
				<path class="st9" d="M70.5,58.5L70.5,58.5c-1.6,0-2.8-1.3-2.8-2.8V8.2c0-1.6,1.3-2.8,2.8-2.8l0,0c1.6,0,2.8,1.3,2.8,2.8v47.5
					C73.3,57.3,72.1,58.5,70.5,58.5z"/>
			</g>
			<g>
				<g>
					<path class="st3" d="M67.1,67.7l1.5-3.2h-1.9v-0.4h2.4v0.3l-1.5,3.2L67.1,67.7L67.1,67.7z"/>
					<path class="st3" d="M71.8,65.9c0,0.6-0.1,1.1-0.3,1.4c-0.2,0.3-0.5,0.5-0.9,0.5s-0.7-0.2-0.9-0.5c-0.2-0.3-0.3-0.8-0.3-1.4
						s0.1-1.1,0.3-1.4c0.2-0.3,0.5-0.5,0.9-0.5s0.7,0.2,0.9,0.5S71.8,65.3,71.8,65.9z M69.9,65.9c0,0.5,0.1,0.9,0.2,1.1
						s0.3,0.4,0.6,0.4c0.3,0,0.5-0.1,0.6-0.4s0.2-0.6,0.2-1.1s-0.1-0.9-0.2-1.1s-0.3-0.4-0.6-0.4c-0.3,0-0.5,0.1-0.6,0.4
						C70,65,69.9,65.4,69.9,65.9z"/>
				</g>
			</g>
		</g>
		<g>
			<g>
				<path class="st0" d="M81.8,58.5L81.8,58.5c-1.6,0-2.8-1.3-2.8-2.8V2.8C79,1.2,80.3,0,81.8,0l0,0c1.6,0,2.8,1.3,2.8,2.8v52.9
					C84.6,57.3,83.3,58.5,81.8,58.5z"/>
				<path class="st1" d="M81.8,58.5L81.8,58.5c-1.6,0-2.8-1.3-2.8-2.8V2.8C79,1.2,80.3,0,81.8,0l0,0c1.6,0,2.8,1.3,2.8,2.8v52.9
					C84.6,57.3,83.3,58.5,81.8,58.5z"/>
				
					<linearGradient id="SVGID_8_" gradientUnits="userSpaceOnUse" x1="81.8" y1="4.4181" x2="81.8" y2="30.7181" gradientTransform="matrix(1 0 0 -1 0 70)">
					<stop  offset="0" style="stop-color:#FFFFFF"/>
					<stop  offset="1" style="stop-color:#00AEF6"/>
				</linearGradient>
				<path class="st10" d="M81.8,58.5L81.8,58.5c-1.6,0-2.8-1.3-2.8-2.8V35c0-1.6,1.3-2.8,2.8-2.8l0,0c1.6,0,2.8,1.3,2.8,2.8v20.7
					C84.6,57.3,83.3,58.5,81.8,58.5z"/>
			</g>
			<g>
				<g>
					<path class="st3" d="M78.8,64.1c0.3,0,0.6,0.1,0.8,0.2c0.2,0.2,0.3,0.4,0.3,0.6s-0.1,0.3-0.2,0.5c-0.1,0.1-0.3,0.3-0.5,0.4
						c0.3,0.1,0.5,0.3,0.6,0.4s0.2,0.3,0.2,0.5c0,0.3-0.1,0.5-0.3,0.7s-0.5,0.3-0.8,0.3c-0.4,0-0.7-0.1-0.9-0.2s-0.3-0.4-0.3-0.7
						c0-0.4,0.2-0.7,0.7-1c-0.2-0.1-0.4-0.3-0.5-0.4s-0.1-0.3-0.1-0.5c0-0.3,0.1-0.5,0.3-0.6C78.2,64.2,78.5,64.1,78.8,64.1z
						 M78,66.8c0,0.2,0.1,0.3,0.2,0.5s0.3,0.2,0.6,0.2c0.2,0,0.4-0.1,0.6-0.2c0.1-0.1,0.2-0.3,0.2-0.5s-0.1-0.3-0.2-0.4
						s-0.3-0.2-0.7-0.4c-0.2,0.1-0.4,0.2-0.5,0.3C78.1,66.5,78,66.6,78,66.8z M78.8,64.4c-0.2,0-0.4,0-0.5,0.1s-0.2,0.2-0.2,0.4
						c0,0.1,0,0.3,0.1,0.4s0.3,0.2,0.5,0.3c0.2-0.1,0.4-0.2,0.5-0.3c0.1-0.1,0.1-0.2,0.1-0.4c0-0.2-0.1-0.3-0.2-0.4
						S79,64.4,78.8,64.4z"/>
					<path class="st3" d="M82.9,65.9c0,0.6-0.1,1.1-0.3,1.4c-0.2,0.3-0.5,0.5-0.9,0.5s-0.7-0.2-0.9-0.5c-0.2-0.3-0.3-0.8-0.3-1.4
						s0.1-1.1,0.3-1.4c0.2-0.3,0.5-0.5,0.9-0.5s0.7,0.2,0.9,0.5S82.9,65.3,82.9,65.9z M80.9,65.9c0,0.5,0.1,0.9,0.2,1.1
						s0.3,0.4,0.6,0.4c0.3,0,0.5-0.1,0.6-0.4s0.2-0.6,0.2-1.1s-0.1-0.9-0.2-1.1s-0.3-0.4-0.6-0.4c-0.3,0-0.5,0.1-0.6,0.4
						C81,65,80.9,65.4,80.9,65.9z"/>
				</g>
			</g>
		</g>
		<g>
			<g>
				<path class="st0" d="M93,58.5L93,58.5c-1.6,0-2.8-1.3-2.8-2.8V2.8C90.2,1.2,91.5,0,93,0l0,0c1.6,0,2.8,1.3,2.8,2.8v52.9
					C95.9,57.3,94.6,58.5,93,58.5z"/>
				<path class="st1" d="M93,58.5L93,58.5c-1.6,0-2.8-1.3-2.8-2.8V2.8C90.2,1.2,91.5,0,93,0l0,0c1.6,0,2.8,1.3,2.8,2.8v52.9
					C95.9,57.3,94.6,58.5,93,58.5z"/>
				
					<linearGradient id="SVGID_9_" gradientUnits="userSpaceOnUse" x1="93.0027" y1="6.4468" x2="93.0027" y2="19.3349" gradientTransform="matrix(1 0 0 -1 0 70)">
					<stop  offset="0" style="stop-color:#FFFFFF"/>
					<stop  offset="1" style="stop-color:#00AEF6"/>
				</linearGradient>
				<path class="st11" d="M93,58.5L93,58.5c-1.6,0-2.8-1.3-2.8-2.8v-7.2c0-1.6,1.3-2.8,2.8-2.8l0,0c1.6,0,2.8,1.3,2.8,2.8v7.2
					C95.9,57.3,94.6,58.5,93,58.5z"/>
			</g>
			<g>
				<g>
					<path class="st3" d="M91.2,65.7c0,1.4-0.5,2.1-1.6,2.1c-0.2,0-0.3,0-0.4,0v-0.3c0.1,0,0.3,0.1,0.4,0.1c0.4,0,0.7-0.1,0.9-0.4
						c0.2-0.2,0.3-0.6,0.3-1.1l0,0c-0.1,0.1-0.2,0.2-0.4,0.3c-0.1,0.1-0.3,0.1-0.5,0.1c-0.3,0-0.6-0.1-0.8-0.3
						c-0.2-0.2-0.3-0.5-0.3-0.8c0-0.4,0.1-0.7,0.3-0.9c0.2-0.2,0.5-0.3,0.8-0.3c0.2,0,0.5,0.1,0.6,0.2c0.2,0.1,0.3,0.3,0.4,0.5
						S91.2,65.3,91.2,65.7z M90,64.4c-0.2,0-0.4,0.1-0.5,0.2s-0.2,0.4-0.2,0.6s0.1,0.4,0.2,0.6c0.1,0.1,0.3,0.2,0.5,0.2
						c0.1,0,0.3,0,0.4-0.1s0.2-0.1,0.3-0.2c0.1-0.1,0.1-0.2,0.1-0.3c0-0.2,0-0.3-0.1-0.5s-0.2-0.3-0.3-0.3
						C90.3,64.5,90.1,64.4,90,64.4z"/>
					<path class="st3" d="M94.1,65.9c0,0.6-0.1,1.1-0.3,1.4c-0.2,0.3-0.5,0.5-0.9,0.5s-0.7-0.2-0.9-0.5c-0.2-0.3-0.3-0.8-0.3-1.4
						s0.1-1.1,0.3-1.4c0.2-0.3,0.5-0.5,0.9-0.5s0.7,0.2,0.9,0.5S94.1,65.3,94.1,65.9z M92.1,65.9c0,0.5,0.1,0.9,0.2,1.1
						s0.3,0.4,0.6,0.4c0.3,0,0.5-0.1,0.6-0.4s0.2-0.6,0.2-1.1s-0.1-0.9-0.2-1.1s-0.3-0.4-0.6-0.4c-0.3,0-0.5,0.1-0.6,0.4
						C92.2,65,92.1,65.4,92.1,65.9z"/>
				</g>
			</g>
		</g>
		<g>
			<g>
				<path class="st0" d="M104.3,58.5L104.3,58.5c-1.6,0-2.8-1.3-2.8-2.8V2.8c0-1.6,1.3-2.8,2.8-2.8l0,0c1.6,0,2.8,1.3,2.8,2.8v52.9
					C107.1,57.3,105.9,58.5,104.3,58.5z"/>
				<path class="st1" d="M104.3,58.5L104.3,58.5c-1.6,0-2.8-1.3-2.8-2.8V2.8c0-1.6,1.3-2.8,2.8-2.8l0,0c1.6,0,2.8,1.3,2.8,2.8v52.9
					C107.1,57.3,105.9,58.5,104.3,58.5z"/>
				
					<linearGradient id="SVGID_10_" gradientUnits="userSpaceOnUse" x1="104.3" y1="-2.2647" x2="104.3" y2="29.4188" gradientTransform="matrix(1 0 0 -1 0 70)">
					<stop  offset="0" style="stop-color:#FFFFFF"/>
					<stop  offset="1" style="stop-color:#00AEF6"/>
				</linearGradient>
				<path class="st12" d="M104.3,58.5L104.3,58.5c-1.6,0-2.8-1.3-2.8-2.8v-26c0-1.6,1.3-2.8,2.8-2.8l0,0c1.6,0,2.8,1.3,2.8,2.8v26
					C107.1,57.3,105.9,58.5,104.3,58.5z"/>
			</g>
			<g>
				<g>
					<path class="st3" d="M102.1,67.7h-0.4v-2.5c0-0.2,0-0.4,0-0.6l-0.1,0.1c0,0-0.2,0.2-0.6,0.5l-0.2-0.3l0.9-0.7h0.3L102.1,67.7
						L102.1,67.7z"/>
					<path class="st3" d="M105.8,65.9c0,0.6-0.1,1.1-0.3,1.4c-0.2,0.3-0.5,0.5-0.9,0.5s-0.7-0.2-0.9-0.5c-0.2-0.3-0.3-0.8-0.3-1.4
						s0.1-1.1,0.3-1.4c0.2-0.3,0.5-0.5,0.9-0.5s0.7,0.2,0.9,0.5S105.8,65.3,105.8,65.9z M103.9,65.9c0,0.5,0.1,0.9,0.2,1.1
						s0.3,0.4,0.6,0.4c0.3,0,0.5-0.1,0.6-0.4s0.2-0.6,0.2-1.1s-0.1-0.9-0.2-1.1s-0.3-0.4-0.6-0.4c-0.3,0-0.5,0.1-0.6,0.4
						C103.9,65,103.9,65.4,103.9,65.9z"/>
					<path class="st3" d="M108.7,65.9c0,0.6-0.1,1.1-0.3,1.4c-0.2,0.3-0.5,0.5-0.9,0.5s-0.7-0.2-0.9-0.5c-0.2-0.3-0.3-0.8-0.3-1.4
						s0.1-1.1,0.3-1.4c0.2-0.3,0.5-0.5,0.9-0.5s0.7,0.2,0.9,0.5S108.7,65.3,108.7,65.9z M106.7,65.9c0,0.5,0.1,0.9,0.2,1.1
						s0.3,0.4,0.6,0.4c0.3,0,0.5-0.1,0.6-0.4s0.2-0.6,0.2-1.1s-0.1-0.9-0.2-1.1s-0.3-0.4-0.6-0.4c-0.3,0-0.5,0.1-0.6,0.4
						C106.8,65,106.7,65.4,106.7,65.9z"/>
				</g>
			</g>
		</g>
	</g>
</g>
</svg>
