<?xml version="1.0" encoding="utf-8"?>
<!-- Generator: Adobe Illustrator 22.0.1, SVG Export Plug-In . SVG Version: 6.00 Build 0)  -->
<svg version="1.1" id="Layer_1" xmlns="http://www.w3.org/2000/svg" xmlns:xlink="http://www.w3.org/1999/xlink" x="0px" y="0px"
	 viewBox="0 0 124 124" style="enable-background:new 0 0 124 124;" xml:space="preserve">
<style type="text/css">
	.st0{fill:url(#SVGID_1_);}
	.st1{fill:url(#SVGID_2_);}
	.st2{fill:#9BA9B7;}
	.st3{fill:url(#SVGID_3_);}
	.st4{fill:url(#SVGID_4_);}
	.st5{fill:url(#SVGID_5_);}
	.st6{fill:url(#SVGID_6_);}
	.st7{fill:url(#SVGID_7_);}
	.st8{fill:url(#SVGID_8_);}
	.st9{fill:url(#SVGID_9_);}
	.st10{fill:url(#SVGID_10_);}
	.st11{fill:#ECF1FF;}
	.st12{opacity:0.3;fill:#DDF3EE;}
	.st13{fill:url(#SVGID_11_);}
</style>
<g>
	<g>
		<g>
			<g>
				<linearGradient id="SVGID_1_" gradientUnits="userSpaceOnUse" x1="32.9783" y1="36.8484" x2="118.2594" y2="36.8484">
					<stop  offset="0" style="stop-color:#F64900"/>
					<stop  offset="1" style="stop-color:#FFC2A9"/>
				</linearGradient>
				<path class="st0" d="M33,36.8L33,36.8c0-1.6,1.3-2.8,2.8-2.8h79.6c1.6,0,2.8,1.3,2.8,2.8l0,0c0,1.6-1.3,2.8-2.8,2.8H35.8
					C34.3,39.7,33,38.4,33,36.8z"/>
				
					<linearGradient id="SVGID_2_" gradientUnits="userSpaceOnUse" x1="-229.9385" y1="-118.6093" x2="-229.9385" y2="-95.8179" gradientTransform="matrix(0 1 -1 0 -80.5648 266.7869)">
					<stop  offset="0" style="stop-color:#FFFFFF"/>
					<stop  offset="1" style="stop-color:#00AEF6"/>
				</linearGradient>
				<path class="st1" d="M14.1,36.8L14.1,36.8c0-1.6,1.3-2.8,2.8-2.8h8.1c1.6,0,2.8,1.3,2.8,2.8l0,0c0,1.6-1.3,2.8-2.8,2.8H17
					C15.4,39.7,14.1,38.4,14.1,36.8z"/>
			</g>
			<g>
				<g>
					<path class="st2" d="M8.2,39.2H7.8v-2.5c0-0.2,0-0.4,0-0.6c0,0-0.1,0.1-0.1,0.1s-0.2,0.2-0.6,0.5l-0.2-0.3l0.9-0.7h0.3V39.2z"
						/>
				</g>
			</g>
		</g>
		<g>
			<g>
				<linearGradient id="SVGID_3_" gradientUnits="userSpaceOnUse" x1="46.1209" y1="49.1149" x2="118.2594" y2="49.1149">
					<stop  offset="0" style="stop-color:#F64900"/>
					<stop  offset="1" style="stop-color:#FFC2A9"/>
				</linearGradient>
				<path class="st3" d="M46.1,49.1L46.1,49.1c0-1.6,1.3-2.8,2.8-2.8h66.5c1.6,0,2.8,1.3,2.8,2.8l0,0c0,1.6-1.3,2.8-2.8,2.8H49
					C47.4,52,46.1,50.7,46.1,49.1z"/>
				
					<linearGradient id="SVGID_4_" gradientUnits="userSpaceOnUse" x1="-217.672" y1="-141.4292" x2="-217.672" y2="-96.8801" gradientTransform="matrix(0 1 -1 0 -80.5648 266.7869)">
					<stop  offset="0" style="stop-color:#FFFFFF"/>
					<stop  offset="1" style="stop-color:#00AEF6"/>
				</linearGradient>
				<path class="st4" d="M14.1,49.1L14.1,49.1c0-1.6,1.3-2.8,2.8-2.8h21.2c1.6,0,2.8,1.3,2.8,2.8l0,0c0,1.6-1.3,2.8-2.8,2.8H17
					C15.4,52,14.1,50.7,14.1,49.1z"/>
			</g>
			<g>
				<g>
					<path class="st2" d="M9,51.4H6.7v-0.3l0.9-0.9c0.3-0.3,0.5-0.5,0.6-0.6s0.2-0.2,0.2-0.4s0.1-0.2,0.1-0.4c0-0.2-0.1-0.3-0.2-0.5
						c-0.1-0.1-0.3-0.2-0.5-0.2c-0.1,0-0.3,0-0.4,0.1c-0.1,0-0.3,0.1-0.4,0.3l-0.2-0.3c0.3-0.3,0.7-0.4,1.1-0.4
						c0.3,0,0.6,0.1,0.8,0.3c0.2,0.2,0.3,0.4,0.3,0.7c0,0.2-0.1,0.5-0.2,0.7s-0.4,0.5-0.7,0.8L7.2,51v0H9V51.4z"/>
				</g>
			</g>
		</g>
		<g>
			<g>
				<linearGradient id="SVGID_5_" gradientUnits="userSpaceOnUse" x1="59.2635" y1="61.6004" x2="118.2594" y2="61.6004">
					<stop  offset="0" style="stop-color:#F64900"/>
					<stop  offset="1" style="stop-color:#FFC2A9"/>
				</linearGradient>
				<path class="st5" d="M59.3,61.6L59.3,61.6c0-1.6,1.3-2.8,2.8-2.8h53.3c1.6,0,2.8,1.3,2.8,2.8l0,0c0,1.6-1.3,2.8-2.8,2.8H62.1
					C60.5,64.4,59.3,63.2,59.3,61.6z"/>
				
					<linearGradient id="SVGID_6_" gradientUnits="userSpaceOnUse" x1="-205.1865" y1="-164.2492" x2="-205.1865" y2="-97.9423" gradientTransform="matrix(0 1 -1 0 -80.5648 266.7869)">
					<stop  offset="0" style="stop-color:#FFFFFF"/>
					<stop  offset="1" style="stop-color:#00AEF6"/>
				</linearGradient>
				<path class="st6" d="M14.1,61.6L14.1,61.6c0-1.6,1.3-2.8,2.8-2.8h34.4c1.6,0,2.8,1.3,2.8,2.8l0,0c0,1.6-1.3,2.8-2.8,2.8H17
					C15.4,64.4,14.1,63.2,14.1,61.6z"/>
			</g>
			<g>
				<g>
					<path class="st2" d="M8.9,61.2c0,0.2-0.1,0.4-0.2,0.6C8.5,61.9,8.4,62,8.1,62v0c0.3,0,0.5,0.1,0.6,0.3S9,62.7,9,62.9
						c0,0.3-0.1,0.6-0.4,0.8C8.4,63.9,8,64,7.6,64c-0.2,0-0.4,0-0.5,0c-0.2,0-0.3-0.1-0.5-0.1v-0.4c0.2,0.1,0.3,0.1,0.5,0.2
						c0.2,0,0.3,0.1,0.5,0.1c0.6,0,0.9-0.2,0.9-0.7c0-0.4-0.3-0.6-1-0.6H7.2v-0.3h0.4c0.3,0,0.5-0.1,0.7-0.2
						c0.2-0.1,0.2-0.3,0.2-0.5c0-0.2-0.1-0.3-0.2-0.4c-0.1-0.1-0.3-0.1-0.5-0.1c-0.2,0-0.3,0-0.4,0.1S7,60.8,6.9,60.9l-0.2-0.3
						c0.1-0.1,0.3-0.2,0.5-0.3c0.2-0.1,0.4-0.1,0.6-0.1c0.3,0,0.6,0.1,0.8,0.2C8.8,60.7,8.9,60.9,8.9,61.2z"/>
				</g>
			</g>
		</g>
		<g>
			<g>
				<linearGradient id="SVGID_7_" gradientUnits="userSpaceOnUse" x1="39.5496" y1="74.0859" x2="118.2594" y2="74.0859">
					<stop  offset="0" style="stop-color:#F64900"/>
					<stop  offset="1" style="stop-color:#FFC2A9"/>
				</linearGradient>
				<path class="st7" d="M39.5,74.1L39.5,74.1c0-1.6,1.3-2.8,2.8-2.8h73c1.6,0,2.8,1.3,2.8,2.8l0,0c0,1.6-1.3,2.8-2.8,2.8h-73
					C40.8,76.9,39.5,75.7,39.5,74.1z"/>
				
					<linearGradient id="SVGID_8_" gradientUnits="userSpaceOnUse" x1="-192.701" y1="-130.0192" x2="-192.701" y2="-96.349" gradientTransform="matrix(0 1 -1 0 -80.5648 266.7869)">
					<stop  offset="0" style="stop-color:#FFFFFF"/>
					<stop  offset="1" style="stop-color:#00AEF6"/>
				</linearGradient>
				<path class="st8" d="M14.1,74.1L14.1,74.1c0-1.6,1.3-2.8,2.8-2.8h14.7c1.6,0,2.8,1.3,2.8,2.8l0,0c0,1.6-1.3,2.8-2.8,2.8H17
					C15.4,76.9,14.1,75.7,14.1,74.1z"/>
			</g>
			<g>
				<g>
					<path class="st2" d="M9.2,75.6H8.6v0.8H8.2v-0.8H6.5v-0.4l1.7-2.4h0.4v2.4h0.5V75.6z M8.2,75.2V74c0-0.2,0-0.5,0-0.8h0
						c-0.1,0.2-0.2,0.3-0.2,0.4l-1.1,1.6H8.2z"/>
				</g>
			</g>
		</g>
		<g>
			<g>
				<linearGradient id="SVGID_9_" gradientUnits="userSpaceOnUse" x1="78.9775" y1="86.5714" x2="118.2594" y2="86.5714">
					<stop  offset="0" style="stop-color:#F64900"/>
					<stop  offset="1" style="stop-color:#FFC2A9"/>
				</linearGradient>
				<path class="st9" d="M79,86.6L79,86.6c0-1.6,1.3-2.8,2.8-2.8h33.6c1.6,0,2.8,1.3,2.8,2.8l0,0c0,1.6-1.3,2.8-2.8,2.8H81.8
					C80.2,89.4,79,88.1,79,86.6z"/>
				
					<linearGradient id="SVGID_10_" gradientUnits="userSpaceOnUse" x1="-180.2155" y1="-198.4791" x2="-180.2155" y2="-99.5356" gradientTransform="matrix(0 1 -1 0 -80.5648 266.7869)">
					<stop  offset="0" style="stop-color:#FFFFFF"/>
					<stop  offset="1" style="stop-color:#00AEF6"/>
				</linearGradient>
				<path class="st10" d="M14.1,86.6L14.1,86.6c0-1.6,1.3-2.8,2.8-2.8h54.1c1.6,0,2.8,1.3,2.8,2.8l0,0c0,1.6-1.3,2.8-2.8,2.8H17
					C15.4,89.4,14.1,88.1,14.1,86.6z"/>
			</g>
			<g>
				<g>
					<path class="st2" d="M7.8,86.7c0.4,0,0.7,0.1,0.9,0.3C8.9,87.2,9,87.4,9,87.8c0,0.4-0.1,0.7-0.4,0.9c-0.2,0.2-0.6,0.3-1,0.3
						c-0.4,0-0.7-0.1-0.9-0.2v-0.4c0.1,0.1,0.3,0.1,0.4,0.2c0.2,0,0.3,0.1,0.5,0.1c0.3,0,0.5-0.1,0.7-0.2c0.2-0.1,0.2-0.3,0.2-0.6
						c0-0.5-0.3-0.7-0.9-0.7c-0.2,0-0.4,0-0.6,0.1L6.8,87L7,85.3h1.8v0.4H7.3l-0.1,1.1C7.4,86.7,7.6,86.7,7.8,86.7z"/>
				</g>
			</g>
		</g>
	</g>
</g>
<g>
	<path class="st11" d="M-18.5,69L-18.5,69c-1.6,0-2.8-1.3-2.8-2.8V13.2c0-1.6,1.3-2.8,2.8-2.8l0,0c1.6,0,2.8,1.3,2.8,2.8v52.9
		C-15.7,67.7-16.9,69-18.5,69z"/>
	<path class="st12" d="M-18.5,69L-18.5,69c-1.6,0-2.8-1.3-2.8-2.8V13.2c0-1.6,1.3-2.8,2.8-2.8l0,0c1.6,0,2.8,1.3,2.8,2.8v52.9
		C-15.7,67.7-16.9,69-18.5,69z"/>
	<linearGradient id="SVGID_11_" gradientUnits="userSpaceOnUse" x1="-18.4987" y1="68.9569" x2="-18.4987" y2="29.2184">
		<stop  offset="0" style="stop-color:#FFFFFF"/>
		<stop  offset="1" style="stop-color:#00AEF6"/>
	</linearGradient>
	<path class="st13" d="M-18.5,69L-18.5,69c-1.6,0-2.8-1.3-2.8-2.8V32c0-1.6,1.3-2.8,2.8-2.8l0,0c1.6,0,2.8,1.3,2.8,2.8v34.1
		C-15.7,67.7-16.9,69-18.5,69z"/>
</g>
<g>
</g>
<g>
</g>
<g>
</g>
<g>
</g>
<g>
</g>
<g>
</g>
</svg>
